<svg width="16" height="16" viewBox="0 0 16 16" fill="none" xmlns="http://www.w3.org/2000/svg">
<path d="M2.40156 2.40039C2.18939 2.40039 1.98591 2.48468 1.83588 2.63471C1.68585 2.78473 1.60156 2.98822 1.60156 3.20039C1.60156 3.41256 1.68585 3.61605 1.83588 3.76608C1.98591 3.91611 2.18939 4.00039 2.40156 4.00039H11.2016C11.4137 4.00039 11.6172 3.91611 11.7672 3.76608C11.9173 3.61605 12.0016 3.41256 12.0016 3.20039C12.0016 2.98822 11.9173 2.78473 11.7672 2.63471C11.6172 2.48468 11.4137 2.40039 11.2016 2.40039H2.40156ZM2.40156 5.60039C2.18939 5.60039 1.98591 5.68468 1.83588 5.83471C1.68585 5.98473 1.60156 6.18822 1.60156 6.40039C1.60156 6.61256 1.68585 6.81605 1.83588 6.96608C1.98591 7.11611 2.18939 7.20039 2.40156 7.20039H8.00156C8.21374 7.20039 8.41722 7.11611 8.56725 6.96608C8.71728 6.81605 8.80156 6.61256 8.80156 6.40039C8.80156 6.18822 8.71728 5.98473 8.56725 5.83471C8.41722 5.68468 8.21374 5.60039 8.00156 5.60039H2.40156ZM2.40156 8.80039C2.18939 8.80039 1.98591 8.88468 1.83588 9.03471C1.68585 9.18473 1.60156 9.38822 1.60156 9.60039C1.60156 9.81256 1.68585 10.016 1.83588 10.1661C1.98591 10.3161 2.18939 10.4004 2.40156 10.4004H5.60156C5.81374 10.4004 6.01722 10.3161 6.16725 10.1661C6.31728 10.016 6.40156 9.81256 6.40156 9.60039C6.40156 9.38822 6.31728 9.18473 6.16725 9.03471C6.01722 8.88468 5.81374 8.80039 5.60156 8.80039H2.40156ZM12.0016 6.40039C12.0016 6.18822 11.9173 5.98473 11.7672 5.83471C11.6172 5.68468 11.4137 5.60039 11.2016 5.60039C10.9894 5.60039 10.7859 5.68468 10.6359 5.83471C10.4858 5.98473 10.4016 6.18822 10.4016 6.40039V10.8692L9.36716 9.83479C9.21628 9.68906 9.0142 9.60843 8.80444 9.61025C8.59469 9.61207 8.39403 9.69621 8.24571 9.84454C8.09738 9.99286 8.01325 10.1935 8.01142 10.4033C8.0096 10.613 8.09024 10.8151 8.23596 10.966L10.636 13.366C10.786 13.516 10.9894 13.6002 11.2016 13.6002C11.4137 13.6002 11.6171 13.516 11.7672 13.366L14.1672 10.966C14.3129 10.8151 14.3935 10.613 14.3917 10.4033C14.3899 10.1935 14.3057 9.99286 14.1574 9.84454C14.0091 9.69621 13.8084 9.61207 13.5987 9.61025C13.3889 9.60843 13.1868 9.68906 13.036 9.83479L12.0016 10.8692V6.40039Z" fill="#333333"/>
</svg>
