<svg width="16" height="16" viewBox="0 0 16 16" fill="none" xmlns="http://www.w3.org/2000/svg">
<path fill-rule="evenodd" clip-rule="evenodd" d="M6.66927 2.60301C6.66927 1.90148 7.23775 1.33301 7.93927 1.33301H8.0026C8.53304 1.33301 9.04174 1.54372 9.41682 1.91879C9.79189 2.29387 10.0026 2.80257 10.0026 3.33301V5.99967H12.5119C12.8528 5.99969 13.188 6.08682 13.4858 6.2528C13.7835 6.41878 14.0339 6.6581 14.2131 6.94804C14.3923 7.23798 14.4945 7.56892 14.5099 7.90944C14.5252 8.24996 14.4533 8.58876 14.301 8.89367L11.9676 13.5603C11.9676 13.5604 11.9676 13.5603 11.9676 13.5603C11.8015 13.8927 11.546 14.1724 11.2298 14.3678C10.9137 14.5631 10.5495 14.6665 10.1779 14.6663C10.1778 14.6663 10.178 14.6663 10.1779 14.6663H7.49994C7.33713 14.6663 7.17416 14.6464 7.01495 14.6064C7.01495 14.6064 7.01496 14.6064 7.01495 14.6064C7.01463 14.6064 7.01428 14.6063 7.01396 14.6062L4.58722 13.9997H3.33594C2.8055 13.9997 2.2968 13.789 1.92172 13.4139C1.54665 13.0388 1.33594 12.5301 1.33594 11.9997V7.99967C1.33594 7.46924 1.54665 6.96053 1.92172 6.58546C2.2968 6.21039 2.8055 5.99967 3.33594 5.99967H4.7568L6.37633 3.5699C6.56747 3.28391 6.66927 2.94758 6.66927 2.60301ZM4.0026 7.33301H3.33594C3.15913 7.33301 2.98956 7.40325 2.86453 7.52827C2.73951 7.65329 2.66927 7.82286 2.66927 7.99967V11.9997C2.66927 12.1765 2.73951 12.3461 2.86453 12.4711C2.98956 12.5961 3.15913 12.6663 3.33594 12.6663H4.0026V7.33301ZM5.33594 12.8125V7.53482L7.48487 4.31079C7.48476 4.31095 7.48498 4.31062 7.48487 4.31079C7.8111 3.82248 7.98993 3.25148 8.00195 2.66634C8.17876 2.66634 8.34898 2.73658 8.47401 2.8616C8.59903 2.98663 8.66927 3.1562 8.66927 3.33301V5.99967H8.0026C7.63441 5.99967 7.33594 6.29815 7.33594 6.66634C7.33594 7.03453 7.63441 7.33301 8.0026 7.33301H12.5119C12.5119 7.33301 12.5119 7.33301 12.5119 7.33301C12.6255 7.33301 12.7373 7.36206 12.8365 7.41738C12.9358 7.47271 13.0192 7.55248 13.079 7.64913C13.1387 7.74578 13.1728 7.85609 13.1779 7.96959C13.183 8.08305 13.1591 8.19593 13.1083 8.29753C13.1083 8.29758 13.1083 8.29748 13.1083 8.29753L10.775 12.9642C10.7196 13.075 10.6344 13.1684 10.529 13.2335C10.4236 13.2986 10.3021 13.3331 10.1782 13.333H7.49994C7.44575 13.333 7.39173 13.3264 7.33925 13.3132L5.33594 12.8125Z" fill="#FF2200"/>
</svg>
