<svg width="16" height="17" viewBox="0 0 16 17" fill="none" xmlns="http://www.w3.org/2000/svg">
<path d="M7.99844 2.1001C6.93757 2.1001 5.92016 2.52152 5.17001 3.27167C4.41987 4.02182 3.99844 5.03923 3.99844 6.1001V7.7001C3.57409 7.7001 3.16712 7.86867 2.86707 8.16873C2.56701 8.46879 2.39844 8.87575 2.39844 9.3001V13.3001C2.39844 13.7244 2.56701 14.1314 2.86707 14.4315C3.16712 14.7315 3.57409 14.9001 3.99844 14.9001H11.9984C12.4228 14.9001 12.8298 14.7315 13.1298 14.4315C13.4299 14.1314 13.5984 13.7244 13.5984 13.3001V9.3001C13.5984 8.87575 13.4299 8.46879 13.1298 8.16873C12.8298 7.86867 12.4228 7.7001 11.9984 7.7001H5.59844V6.1001C5.59824 5.51581 5.8112 4.95152 6.19737 4.51304C6.58354 4.07457 7.11641 3.79203 7.69604 3.71841C8.27567 3.64479 8.86225 3.78515 9.34578 4.11316C9.8293 4.44118 10.1766 4.93431 10.3224 5.5001C10.3755 5.70559 10.508 5.88159 10.6908 5.98939C10.7813 6.04276 10.8815 6.07778 10.9855 6.09246C11.0896 6.10713 11.1955 6.10116 11.2972 6.0749C11.399 6.04863 11.4946 6.00259 11.5785 5.93938C11.6625 5.87618 11.7332 5.79706 11.7865 5.70654C11.8399 5.61602 11.8749 5.51588 11.8896 5.41182C11.9043 5.30777 11.8983 5.20185 11.872 5.1001C11.6501 4.24151 11.1492 3.48098 10.448 2.93797C9.74691 2.39496 8.88526 2.10024 7.99844 2.1001Z" fill="#333333" fill-opacity="0.5"/>
</svg>
