<svg width="16" height="17" viewBox="0 0 16 17" fill="none" xmlns="http://www.w3.org/2000/svg">
<path d="M7.19687 5.30039C7.19687 5.93691 6.94402 6.54736 6.49393 6.99745C6.04384 7.44754 5.43339 7.70039 4.79687 7.70039C4.16036 7.70039 3.54991 7.44754 3.09982 6.99745C2.64973 6.54736 2.39687 5.93691 2.39687 5.30039C2.39687 4.66387 2.64973 4.05342 3.09982 3.60333C3.54991 3.15325 4.16036 2.90039 4.79687 2.90039C5.43339 2.90039 6.04384 3.15325 6.49393 3.60333C6.94402 4.05342 7.19687 4.66387 7.19687 5.30039ZM13.5969 5.30039C13.5969 5.61556 13.5348 5.92765 13.4142 6.21883C13.2936 6.51001 13.1168 6.77459 12.8939 6.99745C12.6711 7.22031 12.4065 7.39709 12.1153 7.5177C11.8241 7.63831 11.512 7.70039 11.1969 7.70039C10.8817 7.70039 10.5696 7.63831 10.2784 7.5177C9.98725 7.39709 9.72268 7.22031 9.49982 6.99745C9.27696 6.77459 9.10017 6.51001 8.97956 6.21883C8.85895 5.92765 8.79687 5.61556 8.79687 5.30039C8.79687 4.66387 9.04973 4.05342 9.49982 3.60333C9.94991 3.15325 10.5604 2.90039 11.1969 2.90039C11.8334 2.90039 12.4438 3.15325 12.8939 3.60333C13.344 4.05342 13.5969 4.66387 13.5969 5.30039ZM10.3409 14.1004C10.3777 13.8388 10.3969 13.5724 10.3969 13.3004C10.3987 12.0435 9.97586 10.8228 9.19687 9.83639C9.80494 9.48532 10.4947 9.3005 11.1968 9.30049C11.899 9.30049 12.5888 9.4853 13.1968 9.83637C13.8049 10.1874 14.3099 10.6924 14.6609 11.3004C15.012 11.9085 15.1969 12.5983 15.1969 13.3004V14.1004H10.3409ZM4.79687 9.30039C5.85774 9.30039 6.87516 9.72182 7.6253 10.472C8.37545 11.2221 8.79687 12.2395 8.79687 13.3004V14.1004H0.796875V13.3004C0.796875 12.2395 1.2183 11.2221 1.96845 10.472C2.71859 9.72182 3.73601 9.30039 4.79687 9.30039Z" fill="#333333" fill-opacity="0.5"/>
</svg>
